<svg xmlns="http://www.w3.org/2000/svg" viewBox="0 0 64 64">
<title>เข็มทิศกรอบความคิด</title>
<path d="M32.00 1.00A31 31 0 0 1 58.85 16.50L44.12 25.00A14 14 0 0 0 32.00 18.00Z" fill="#b5322e"/>
<path d="M58.85 16.50A31 31 0 0 1 58.85 47.50L44.12 39.00A14 14 0 0 0 44.12 25.00Z" fill="#c7791a"/>
<path d="M58.85 47.50A31 31 0 0 1 32.00 63.00L32.00 46.00A14 14 0 0 0 44.12 39.00Z" fill="#245fa6"/>
<path d="M32.00 63.00A31 31 0 0 1 5.15 47.50L19.88 39.00A14 14 0 0 0 32.00 46.00Z" fill="#2b7a4b"/>
<path d="M5.15 47.50A31 31 0 0 1 5.15 16.50L19.88 25.00A14 14 0 0 0 19.88 39.00Z" fill="#6b3fa0"/>
<path d="M5.15 16.50A31 31 0 0 1 32.00 1.00L32.00 18.00A14 14 0 0 0 19.88 25.00Z" fill="#3f6f78"/>
</svg>
